<svg width="41" height="11" viewBox="0 0 41 11" fill="none" xmlns="http://www.w3.org/2000/svg">
<path d="M7.88672 10H6.16406V1.44141H1.78223V10H0.0595703V0.046875H7.88672V10ZM9.75684 6.2334C9.75684 5.50879 9.90039 4.8571 10.1875 4.27832C10.4746 3.69499 10.8779 3.24837 11.3975 2.93848C11.917 2.62402 12.514 2.4668 13.1885 2.4668C14.1865 2.4668 14.9954 2.78809 15.6152 3.43066C16.2396 4.07324 16.5768 4.92546 16.627 5.9873L16.6338 6.37695C16.6338 7.10612 16.4925 7.75781 16.21 8.33203C15.932 8.90625 15.5309 9.35059 15.0068 9.66504C14.4873 9.97949 13.8857 10.1367 13.2021 10.1367C12.1585 10.1367 11.3223 9.79036 10.6934 9.09766C10.069 8.40039 9.75684 7.47298 9.75684 6.31543V6.2334ZM11.418 6.37695C11.418 7.13802 11.5752 7.73503 11.8896 8.16797C12.2041 8.59635 12.6416 8.81055 13.2021 8.81055C13.7627 8.81055 14.1979 8.5918 14.5078 8.1543C14.8223 7.7168 14.9795 7.0765 14.9795 6.2334C14.9795 5.486 14.8177 4.89355 14.4941 4.45605C14.1751 4.01855 13.7399 3.7998 13.1885 3.7998C12.6462 3.7998 12.2155 4.01628 11.8965 4.44922C11.5775 4.8776 11.418 5.52018 11.418 6.37695ZM22.9062 2.60352H24.5605V10H22.9062V5.06445L20.0078 10H18.3535V2.60352H20.0078V7.53906L22.9062 2.60352ZM29.6162 8.81055C30.0309 8.81055 30.375 8.68978 30.6484 8.44824C30.9219 8.20671 31.0677 7.9082 31.0859 7.55273H32.6514C32.6331 8.01302 32.4896 8.44368 32.2207 8.84473C31.9518 9.24121 31.5872 9.55566 31.127 9.78809C30.6667 10.0205 30.1699 10.1367 29.6367 10.1367C28.6022 10.1367 27.7819 9.80176 27.1758 9.13184C26.5697 8.46191 26.2666 7.53678 26.2666 6.35645V6.18555C26.2666 5.0599 26.5674 4.15983 27.1689 3.48535C27.7705 2.80632 28.5908 2.4668 29.6299 2.4668C30.5094 2.4668 31.2249 2.72428 31.7764 3.23926C32.3324 3.74967 32.624 4.42188 32.6514 5.25586H31.0859C31.0677 4.83203 30.9219 4.4834 30.6484 4.20996C30.3796 3.93652 30.0355 3.7998 29.6162 3.7998C29.0785 3.7998 28.6637 3.99577 28.3721 4.3877C28.0804 4.77507 27.9323 5.36523 27.9277 6.1582V6.4248C27.9277 7.22689 28.0713 7.82617 28.3584 8.22266C28.6501 8.61458 29.0693 8.81055 29.6162 8.81055ZM36.7842 7.07422H35.9434V10H34.2822V2.60352H35.9434V5.55664H36.6748L38.7188 2.60352H40.7695L38.0967 6.14453L40.9951 10H38.835L36.7842 7.07422Z" fill="#2A2D43"/>
</svg>
