<svg width="60" height="14" viewBox="0 0 60 14" fill="none" xmlns="http://www.w3.org/2000/svg">
<path d="M8.60645 7.75977C8.50618 8.82161 8.11426 9.65104 7.43066 10.248C6.74707 10.8405 5.83789 11.1367 4.70312 11.1367C3.91016 11.1367 3.21061 10.9499 2.60449 10.5762C2.00293 10.1979 1.53809 9.66243 1.20996 8.96973C0.881836 8.27702 0.710938 7.47266 0.697266 6.55664V5.62695C0.697266 4.68815 0.863607 3.861 1.19629 3.14551C1.52897 2.43001 2.00521 1.87858 2.625 1.49121C3.24935 1.10384 3.9694 0.910156 4.78516 0.910156C5.88346 0.910156 6.76758 1.20866 7.4375 1.80566C8.10742 2.40267 8.49707 3.24577 8.60645 4.33496H6.88379C6.80176 3.61947 6.59212 3.10449 6.25488 2.79004C5.9222 2.47103 5.43229 2.31152 4.78516 2.31152C4.0332 2.31152 3.45443 2.58724 3.04883 3.13867C2.64779 3.68555 2.44271 4.48991 2.43359 5.55176V6.43359C2.43359 7.50911 2.625 8.32943 3.00781 8.89453C3.39518 9.45964 3.96029 9.74219 4.70312 9.74219C5.38216 9.74219 5.89258 9.58952 6.23438 9.28418C6.57617 8.97884 6.79264 8.4707 6.88379 7.75977H8.60645ZM13.5049 11.1367C12.4521 11.1367 11.5977 10.8063 10.9414 10.1455C10.2897 9.48014 9.96387 8.59603 9.96387 7.49316V7.28809C9.96387 6.5498 10.1051 5.89128 10.3877 5.3125C10.6748 4.72917 11.0758 4.27572 11.5908 3.95215C12.1058 3.62858 12.68 3.4668 13.3135 3.4668C14.3206 3.4668 15.0977 3.78809 15.6445 4.43066C16.196 5.07324 16.4717 5.98242 16.4717 7.1582V7.82812H11.6387C11.6888 8.4388 11.8916 8.92188 12.2471 9.27734C12.6071 9.63281 13.0583 9.81055 13.6006 9.81055C14.3617 9.81055 14.9814 9.50293 15.46 8.8877L16.3555 9.74219C16.0592 10.1842 15.6628 10.5283 15.166 10.7744C14.6738 11.016 14.1201 11.1367 13.5049 11.1367ZM13.3066 4.7998C12.8509 4.7998 12.4818 4.95931 12.1992 5.27832C11.9212 5.59733 11.7435 6.04167 11.666 6.61133H14.8311V6.48828C14.7946 5.93229 14.6465 5.51302 14.3867 5.23047C14.127 4.94336 13.7669 4.7998 13.3066 4.7998ZM24.4941 7.37695C24.4941 8.52083 24.2344 9.43457 23.7148 10.1182C23.1953 10.7972 22.498 11.1367 21.623 11.1367C20.8118 11.1367 20.1624 10.8701 19.6748 10.3369V13.8438H18.0137V3.60352H19.5449L19.6133 4.35547C20.1009 3.76302 20.764 3.4668 21.6025 3.4668C22.5049 3.4668 23.2113 3.80404 23.7217 4.47852C24.2367 5.14844 24.4941 6.0804 24.4941 7.27441V7.37695ZM22.8398 7.2334C22.8398 6.49512 22.6917 5.90951 22.3955 5.47656C22.1038 5.04362 21.6846 4.82715 21.1377 4.82715C20.4587 4.82715 19.971 5.10742 19.6748 5.66797V8.94922C19.9756 9.52344 20.4678 9.81055 21.1514 9.81055C21.68 9.81055 22.0924 9.59863 22.3887 9.1748C22.6895 8.74642 22.8398 8.09928 22.8398 7.2334ZM26.2822 11V3.60352H29.2832C30.2949 3.60352 31.0651 3.78125 31.5938 4.13672C32.1224 4.48763 32.3867 4.99349 32.3867 5.6543C32.3867 5.99609 32.2796 6.30371 32.0654 6.57715C31.8558 6.84603 31.5436 7.05339 31.1289 7.19922C31.612 7.29948 31.9948 7.50228 32.2773 7.80762C32.5599 8.11296 32.7012 8.47298 32.7012 8.8877C32.7012 9.57585 32.446 10.0999 31.9355 10.46C31.4297 10.82 30.7005 11 29.748 11H26.2822ZM27.9434 7.84863V9.6875H29.7617C30.6139 9.6875 31.04 9.38216 31.04 8.77148C31.04 8.15625 30.6071 7.84863 29.7412 7.84863H27.9434ZM27.9434 6.65918H29.3105C30.2539 6.65918 30.7256 6.38118 30.7256 5.8252C30.7256 5.24186 30.279 4.94108 29.3857 4.92285H27.9434V6.65918ZM39.0078 3.60352H40.6621V11H39.0078V6.06445L36.1094 11H34.4551V3.60352H36.1094V8.53906L39.0078 3.60352ZM45.7178 9.81055C46.1325 9.81055 46.4766 9.68978 46.75 9.44824C47.0234 9.20671 47.1693 8.9082 47.1875 8.55273H48.7529C48.7347 9.01302 48.5911 9.44368 48.3223 9.84473C48.0534 10.2412 47.6888 10.5557 47.2285 10.7881C46.7682 11.0205 46.2715 11.1367 45.7383 11.1367C44.7038 11.1367 43.8835 10.8018 43.2773 10.1318C42.6712 9.46191 42.3682 8.53678 42.3682 7.35645V7.18555C42.3682 6.0599 42.6689 5.15983 43.2705 4.48535C43.8721 3.80632 44.6924 3.4668 45.7314 3.4668C46.611 3.4668 47.3265 3.72428 47.8779 4.23926C48.4339 4.74967 48.7256 5.42188 48.7529 6.25586H47.1875C47.1693 5.83203 47.0234 5.4834 46.75 5.20996C46.4811 4.93652 46.137 4.7998 45.7178 4.7998C45.18 4.7998 44.7653 4.99577 44.4736 5.3877C44.182 5.77507 44.0339 6.36523 44.0293 7.1582V7.4248C44.0293 8.22689 44.1729 8.82617 44.46 9.22266C44.7516 9.61458 45.1709 9.81055 45.7178 9.81055ZM52.0449 5.95508H53.6719C54.278 5.95508 54.8066 6.0599 55.2578 6.26953C55.709 6.47917 56.0508 6.77311 56.2832 7.15137C56.5202 7.52962 56.6387 7.9694 56.6387 8.4707C56.6387 9.23177 56.3698 9.84245 55.832 10.3027C55.2943 10.763 54.5788 10.9954 53.6855 11H50.3838V3.60352H52.0449V5.95508ZM59.5303 11H57.8691V3.60352H59.5303V11ZM52.0449 7.28809V9.67383H53.665C54.0706 9.67383 54.3896 9.57357 54.6221 9.37305C54.859 9.16797 54.9775 8.87858 54.9775 8.50488C54.9775 8.13118 54.8613 7.83724 54.6289 7.62305C54.401 7.4043 54.0911 7.29264 53.6992 7.28809H52.0449Z" fill="#2A2D43"/>
</svg>
